<svg width="44" height="44" viewBox="0 0 44 44" fill="none" xmlns="http://www.w3.org/2000/svg">
<path d="M15.8325 23.6753C15.5282 23.6753 15.2487 23.6006 14.9941 23.4512C14.7451 23.3018 14.5459 23.1025 14.3965 22.8535C14.2471 22.6045 14.1724 22.325 14.1724 22.0151C14.1724 21.7108 14.2471 21.4341 14.3965 21.1851C14.5459 20.9305 14.7451 20.7285 14.9941 20.5791C15.2487 20.4297 15.5282 20.355 15.8325 20.355C16.3029 20.355 16.7013 20.5182 17.0278 20.8447C17.3543 21.1657 17.5176 21.5558 17.5176 22.0151C17.5176 22.325 17.4401 22.6045 17.2852 22.8535C17.1357 23.1025 16.9338 23.3018 16.6792 23.4512C16.4302 23.6006 16.1479 23.6753 15.8325 23.6753ZM22 23.6753C21.6956 23.6753 21.4162 23.6006 21.1616 23.4512C20.9126 23.3018 20.7134 23.1025 20.564 22.8535C20.4201 22.6045 20.3481 22.325 20.3481 22.0151C20.3481 21.7108 20.4201 21.4341 20.564 21.1851C20.7134 20.9305 20.9126 20.7285 21.1616 20.5791C21.4162 20.4297 21.6956 20.355 22 20.355C22.4593 20.355 22.8494 20.5182 23.1704 20.8447C23.4969 21.1657 23.6602 21.5558 23.6602 22.0151C23.6602 22.325 23.5854 22.6045 23.436 22.8535C23.2866 23.1025 23.0874 23.3018 22.8384 23.4512C22.5894 23.6006 22.3099 23.6753 22 23.6753ZM28.1675 23.6753C27.8576 23.6753 27.5754 23.6006 27.3208 23.4512C27.0662 23.3018 26.8643 23.1025 26.7148 22.8535C26.5654 22.6045 26.4907 22.325 26.4907 22.0151C26.4907 21.7108 26.5654 21.4341 26.7148 21.1851C26.8643 20.9305 27.0662 20.7285 27.3208 20.5791C27.5754 20.4297 27.8576 20.355 28.1675 20.355C28.6268 20.355 29.0169 20.5182 29.3379 20.8447C29.6644 21.1657 29.8276 21.5558 29.8276 22.0151C29.8276 22.325 29.7529 22.6045 29.6035 22.8535C29.4541 23.1025 29.2521 23.3018 28.9976 23.4512C28.7485 23.6006 28.4718 23.6753 28.1675 23.6753Z" fill="#3C3C43"/>
</svg>
