<svg width="14" height="13" viewBox="0 0 14 13" fill="none" xmlns="http://www.w3.org/2000/svg">
<path d="M7 12.4409C6.93652 12.4409 6.86035 12.4219 6.77148 12.3838C6.68685 12.3499 6.61068 12.3118 6.54297 12.2695C5.34961 11.5078 4.31494 10.7101 3.43896 9.87646C2.56299 9.03857 1.8859 8.17952 1.40771 7.29932C0.933757 6.41488 0.696777 5.52197 0.696777 4.62061C0.696777 4.05778 0.785645 3.54362 0.963379 3.07812C1.14535 2.6084 1.39714 2.20215 1.71875 1.85938C2.04036 1.5166 2.41488 1.25212 2.84229 1.06592C3.26969 0.87972 3.73307 0.786621 4.23242 0.786621C4.85449 0.786621 5.40039 0.945312 5.87012 1.2627C6.33984 1.58008 6.71647 1.99902 7 2.51953C7.28776 1.99479 7.6665 1.57585 8.13623 1.2627C8.60596 0.945312 9.14974 0.786621 9.76758 0.786621C10.2669 0.786621 10.7303 0.87972 11.1577 1.06592C11.5894 1.25212 11.9639 1.5166 12.2812 1.85938C12.6029 2.20215 12.8525 2.6084 13.0303 3.07812C13.2122 3.54362 13.3032 4.05778 13.3032 4.62061C13.3032 5.52197 13.0641 6.41488 12.5859 7.29932C12.112 8.17952 11.437 9.03857 10.561 9.87646C9.68929 10.7101 8.65674 11.5078 7.46338 12.2695C7.39567 12.3118 7.31738 12.3499 7.22852 12.3838C7.14388 12.4219 7.06771 12.4409 7 12.4409Z" fill="current"/>
</svg>
